<svg width="59" height="60" viewBox="0 0 59 60" fill="none" xmlns="http://www.w3.org/2000/svg">
<path d="M2.19525 58.1621H54.7727" stroke="#CED5E5" stroke-width="3" stroke-linecap="round" stroke-linejoin="round"/>
<path d="M46.843 31.6255H21.3027C17.736 31.6255 14.838 28.7266 14.838 25.1586V18.6917C14.838 8.75239 22.9269 0.692627 32.8309 0.692627H35.3467C45.2826 0.692627 53.3396 8.78424 53.3396 18.6917V25.1586C53.3077 28.7266 50.4098 31.6255 46.843 31.6255ZM32.7991 6.23571C25.9522 6.23571 20.3474 11.8106 20.3474 18.6917V25.1586C20.3474 25.6683 20.7613 26.0824 21.2709 26.0824H46.8112C47.3207 26.0824 47.7347 25.6683 47.7347 25.1586V18.6917C47.7347 11.8425 42.1617 6.23571 35.283 6.23571H32.7991Z" fill="#5900CC"/>
<path d="M58.2436 38.9208C58.2436 25.5728 47.4479 14.7734 34.1045 14.7734C20.7611 14.7734 9.96541 25.5728 9.96541 38.9208C9.96541 52.2688 20.7611 58.1623 34.1045 58.1623C47.4161 58.1623 58.2436 52.2688 58.2436 38.9208Z" fill="#8B34FF"/>
</svg>
